<svg id="Camada_1" data-name="Camada 1" xmlns="http://www.w3.org/2000/svg" viewBox="0 0 270 316.44"><defs><style>.cls-1,.cls-5{stroke:#000;stroke-miterlimit:10;}.cls-1{stroke-width:14px;}.cls-2{fill:#91cc18;}.cls-3{fill:#f0f825;}.cls-4{fill:#4dbad6;}.cls-5{fill:none;stroke-width:28px;}.cls-6{fill:#fff;}</style></defs><title>Prancheta 1</title><path class="cls-1" d="M77,190l32.25,102.46c5.76,16.28,28.7,16.48,34.74.31l35.73-94.13a31.38,31.38,0,0,1-18.24,5.76,28.43,28.43,0,0,1-4.19-.42,92.14,92.14,0,0,1-53.67-3Z"/><circle class="cls-2" cx="135.33" cy="116.93" r="81.27"/><path class="cls-3" d="M63.55,118.29l72.68-41.4,70.88,43.34L134.34,157Z"/><circle class="cls-4" cx="135.33" cy="116.93" r="26.19"/><circle class="cls-5" cx="135.33" cy="116.93" r="89.73"/><path class="cls-6" d="M109.41,120.71a66.3,66.3,0,0,1,17.87-11.14,67,67,0,0,1,31.19-4.91l1.72,4a66.71,66.71,0,0,0-29.53,4.53,66,66,0,0,0-20,12.53Z"/></svg>